<svg xmlns="http://www.w3.org/2000/svg" style="display:none">
  <symbol id="i-bot" viewBox="0 0 24 24" fill="none" stroke="currentColor" stroke-width="1.8" stroke-linecap="round" stroke-linejoin="round"><rect x="4" y="8" width="16" height="11" rx="5"/><circle cx="9" cy="13" r="1" fill="currentColor"/><circle cx="15" cy="13" r="1" fill="currentColor"/><path d="M12 8V4M8 4h8"/></symbol>
  <symbol id="i-save" viewBox="0 0 24 24" fill="none" stroke="currentColor" stroke-width="1.8" stroke-linecap="round" stroke-linejoin="round"><path d="M5 4h11l3 3v13H5z"/><path d="M8 4v5h7V4M8 20v-6h8v6"/></symbol>
  <symbol id="i-models" viewBox="0 0 24 24" fill="none" stroke="currentColor" stroke-width="1.8" stroke-linecap="round" stroke-linejoin="round"><path d="M12 4v11m0 0l-4-4m4 4l4-4"/><path d="M5 19h14"/></symbol>
  <symbol id="i-plug" viewBox="0 0 24 24" fill="none" stroke="currentColor" stroke-width="1.8" stroke-linecap="round" stroke-linejoin="round"><path d="M9 7V3M15 7V3M7 7h10v5a5 5 0 01-10 0zM12 17v4"/></symbol>
  <symbol id="i-sliders" viewBox="0 0 24 24" fill="none" stroke="currentColor" stroke-width="1.8" stroke-linecap="round"><path d="M5 7h14M5 12h14M5 17h14"/><circle cx="10" cy="7" r="2" fill="var(--bg)" stroke="currentColor"/><circle cx="15" cy="12" r="2" fill="var(--bg)" stroke="currentColor"/><circle cx="9" cy="17" r="2" fill="var(--bg)" stroke="currentColor"/></symbol>
  <symbol id="i-play" viewBox="0 0 24 24" fill="none" stroke="currentColor" stroke-width="1.8" stroke-linejoin="round"><path d="M8 5v14l11-7z"/></symbol>
  <symbol id="i-scan" viewBox="0 0 24 24" fill="none" stroke="currentColor" stroke-width="1.8" stroke-linecap="round"><path d="M4 8V5h3M17 5h3v3M20 16v3h-3M7 20H4v-3"/><path d="M4 12h16"/></symbol>
  <symbol id="i-bolt" viewBox="0 0 24 24" fill="none" stroke="currentColor" stroke-width="1.8" stroke-linejoin="round"><path d="M13 3L5 13h5l-1 8 8-10h-5z"/></symbol>
  <symbol id="i-download" viewBox="0 0 24 24" fill="none" stroke="currentColor" stroke-width="1.8" stroke-linecap="round" stroke-linejoin="round"><path d="M12 4v11m0 0l-4-4m4 4l4-4"/><path d="M5 20h14"/></symbol>
  <symbol id="i-spark" viewBox="0 0 24 24" fill="none" stroke="currentColor" stroke-width="1.8" stroke-linejoin="round"><path d="M12 3v5M12 16v5M3 12h5M16 12h5M6 6l3 3M15 15l3 3M18 6l-3 3M9 15l-3 3"/></symbol>
  <symbol id="i-sun" viewBox="0 0 24 24" fill="none" stroke="currentColor" stroke-width="1.8" stroke-linecap="round"><circle cx="12" cy="12" r="4"/><path d="M12 2v2M12 20v2M2 12h2M20 12h2M4.9 4.9l1.4 1.4M17.7 17.7l1.4 1.4M19.1 4.9l-1.4 1.4M6.3 17.7l-1.4 1.4"/></symbol>
  <symbol id="i-moon" viewBox="0 0 24 24" fill="none" stroke="currentColor" stroke-width="1.8" stroke-linecap="round" stroke-linejoin="round"><path d="M20 14A8 8 0 0110 4a8 8 0 0010 10z"/></symbol>
  <symbol id="i-check" viewBox="0 0 24 24" fill="none" stroke="currentColor" stroke-width="2" stroke-linecap="round" stroke-linejoin="round"><path d="M4 12l5 5L20 6"/></symbol>
  <symbol id="i-x" viewBox="0 0 24 24" fill="none" stroke="currentColor" stroke-width="2" stroke-linecap="round"><path d="M6 6l12 12M18 6L6 18"/></symbol>
  <symbol id="i-chev" viewBox="0 0 24 24" fill="none" stroke="currentColor" stroke-width="2" stroke-linecap="round" stroke-linejoin="round"><path d="M9 6l6 6-6 6"/></symbol>
  <symbol id="i-plus" viewBox="0 0 24 24" fill="none" stroke="currentColor" stroke-width="2" stroke-linecap="round"><path d="M12 5v14M5 12h14"/></symbol>
  <symbol id="i-refresh" viewBox="0 0 24 24" fill="none" stroke="currentColor" stroke-width="1.8" stroke-linecap="round" stroke-linejoin="round"><path d="M20 12a8 8 0 11-2.3-5.6M20 4v5h-5"/></symbol>
  <symbol id="i-chat" viewBox="0 0 24 24" fill="none" stroke="currentColor" stroke-width="1.8" stroke-linecap="round" stroke-linejoin="round"><path d="M4 6h16v10H9l-5 4z"/></symbol>
  <symbol id="i-cpu" viewBox="0 0 24 24" fill="none" stroke="currentColor" stroke-width="1.8" stroke-linecap="round"><rect x="7" y="7" width="10" height="10" rx="2"/><path d="M12 2v3M12 19v3M2 12h3M19 12h3M5 5l2 2M17 17l2 2M19 5l-2 2M7 17l-2 2"/></symbol>
</svg>
